<svg xmlns="http://www.w3.org/2000/svg" version="1.1" viewBox="0 0 183 138">
    <path
        d="M79 74c0,2 -2,4 -5,4l-39 0c-2,0 -4,-2 -4,-4 0,-2 2,-4 4,-4l39 0c3,0 5,2 5,4l0 0zm-13 21l-31 0c-2,0 -4,2 -4,4 0,3 2,5 4,5l31 0c2,0 4,-2 4,-5 0,-2 -2,-4 -4,-4l0 0zm8 -52l-39 0c-2,0 -4,2 -4,5 0,2 2,4 4,4l39 0c3,0 5,-2 5,-4 0,-3 -2,-5 -5,-5l0 0zm100 -26l0 104c0,2 -2,4 -4,4l-156 0c-3,0 -4,-2 -4,-4l0 -104c0,-2 1,-4 4,-4l156 0c2,0 4,2 4,4l0 0zm-9 5l-147 0 0 95 147 0 0 -95zm-13 77c0,3 -2,5 -4,5l-61 0c-2,0 -4,-2 -4,-5 0,0 0,0 0,0 0,-13 8,-26 21,-31 -5,-4 -7,-10 -7,-16 0,-12 9,-22 20,-22 11,0 21,10 21,22 0,6 -3,12 -7,16 13,5 21,18 21,31l0 0zm-46 -47c0,6 5,13 11,13 7,0 12,-7 12,-13 0,-6 -5,-13 -12,-13 -6,0 -11,7 -11,13zm37 43c-2,-12 -13,-21 -25,-21 -13,0 -24,9 -26,21l51 0z"/>
</svg>
