<svg xmlns="http://www.w3.org/2000/svg" viewBox="0 0 3128 3128">
  <path d="M990 98c191,0 346,155 346,346 0,191 -155,346 -346,346 -191,0 -346,-155 -346,-346 0,-191 155,-346 346,-346zm1148 0c191,0 345,155 345,346 0,191 -154,346 -345,346 -192,0 -346,-155 -346,-346 0,-191 154,-346 346,-346zm0 2240c191,0 345,155 345,346 0,191 -154,346 -345,346 -192,0 -346,-155 -346,-346 0,-191 154,-346 346,-346zm0 -1120c191,0 345,155 345,346 0,191 -154,346 -345,346 -192,0 -346,-155 -346,-346 0,-191 154,-346 346,-346zm-1148 1120c191,0 346,155 346,346 0,191 -155,346 -346,346 -191,0 -346,-155 -346,-346 0,-191 155,-346 346,-346zm0 -1120c191,0 346,155 346,346 0,191 -155,346 -346,346 -191,0 -346,-155 -346,-346 0,-191 155,-346 346,-346z"/>
</svg>
