<svg xmlns="http://www.w3.org/2000/svg" viewBox="0 0 220 220">
  <path d="M110 3c0,0 0,0 0,0 -61,0 -110,50 -110,110 0,23 7,45 20,64l-11 12c-1,1 -2,2 -2,4 0,4 3,7 6,7 0,0 0,0 0,0l41 0c0,0 1,0 1,0 4,0 8,-4 8,-9l0 -41c0,0 0,0 0,0 0,-4 -3,-7 -6,-7 -2,0 -4,1 -5,2l-11 12c-8,-13 -13,-28 -13,-43 0,0 0,0 0,0 0,0 0,-1 0,-1 0,-45 37,-81 82,-81 45,0 82,36 82,81 0,34 -21,64 -52,76 -5,2 -9,8 -9,14 0,1 0,1 1,2 1,7 7,12 13,12 2,0 4,-1 6,-1 42,-17 69,-57 69,-103 0,-60 -49,-110 -110,-110 0,0 0,0 0,0l0 0zm15 99l39 0 0 0 1 0c3,0 6,2 9,4l0 0c2,3 4,6 4,10 0,3 -2,6 -4,9l0 0c-3,2 -6,4 -9,4l-1 0 0 0 -52 0c-4,0 -7,-2 -10,-4 -2,-3 -3,-6 -3,-9l0 -53c0,-4 1,-7 3,-9l1 0c2,-3 5,-4 9,-4 3,0 7,1 9,4l0 0c3,2 4,5 4,9l0 39z"/>
</svg>