<svg xmlns="http://www.w3.org/2000/svg" viewBox="0 0 105 104.76">
    <path d="M99.67,94.1h-89V5.33A5.33,5.33,0,1,0,0,5.33v94.1a5.33,5.33,0,0,0,5.33,5.33H99.67a5.33,5.33,0,1,0,0-10.65Z"/>
    <path d="M23,71.39a5.31,5.31,0,0,0,3.93-1.73l14.84-16.2L68.29,65.11a5.33,5.33,0,0,0,6.43-1.72L91,41.25l1.37,9.53a5.33,5.33,0,0,0,10.54-1.51L99.68,26.72a5.33,5.33,0,0,0-6-4.52L71.11,25.44A5.33,5.33,0,1,0,72.62,36l10.1-1.45-14,19.11L42.55,42.17a5.33,5.33,0,0,0-6.07,1.28l-17.41,19A5.33,5.33,0,0,0,23,71.39Z"/>
</svg>