<?xml version="1.0" encoding="UTF-8"?>
<svg xmlns="http://www.w3.org/2000/svg" xml:space="preserve" version="1.1" viewBox="0 0 3024 3037">
  <path d="M1144 0c-307,-6 -595,114 -809,332 -442,444 -449,1161 -8,1613 218,214 505,336 816,333 266,-5 522,-90 722,-257l1006 1016 153 -158 -1006 -1015c101,-127 185,-270 227,-425 25,-92 43,-198 37,-299 7,-308 -114,-595 -332,-809 -208,-212 -495,-334 -806,-331zm653 488c172,179 265,404 263,658 0,243 -99,481 -278,654 -180,172 -405,265 -658,263 -243,0 -482,-99 -654,-278 -172,-180 -266,-405 -263,-658 9,-75 21,-160 41,-232 42,-155 125,-298 244,-409 180,-172 405,-266 658,-263 246,-10 475,85 647,265z"/>
</svg>