<svg xmlns="http://www.w3.org/2000/svg" viewBox="0 0 401 401">
    <path
        d="M323 200c0,-5 -1,-10 -1,-16l34 -26c2,-2 3,-4 3,-7 0,-1 0,-3 -1,-4l-33 -56c-1,-3 -4,-4 -7,-4 -1,0 -2,0 -3,0l-40 17c-8,-7 -18,-12 -28,-16l-6 -44c0,-3 -4,-6 -8,-6 0,0 0,0 0,0l-65 0c0,0 0,0 0,0 -4,0 -7,3 -8,6l-6 44c-10,4 -19,9 -28,15l-40 -16c-1,0 -2,0 -3,0 -3,0 -6,1 -7,4l-33 56c0,1 -1,3 -1,4 0,3 1,5 3,7l35 26c-1,6 -2,11 -2,16 0,0 0,0 0,0 0,0 0,0 0,0 0,6 1,11 2,16l-35 27c-2,2 -3,4 -3,7 0,1 1,2 1,4l33 56c1,2 4,4 7,4 1,0 2,0 3,-1l40 -16c9,7 18,12 28,17l6 43c1,4 4,7 8,7 0,0 0,0 0,0l65 0c0,0 0,0 0,0 4,0 8,-3 8,-7l6 -43c10,-5 19,-10 28,-17l40 17c1,0 2,0 3,0 3,0 6,-1 7,-4l33 -56c1,-2 1,-3 1,-4 0,-3 -1,-5 -3,-7l-34 -27c0,-5 1,-10 1,-16l0 0 0 0zm-122 -61c34,0 61,28 61,62 0,34 -27,61 -61,61 -34,0 -62,-27 -62,-61 0,-34 28,-62 62,-62z"/>
</svg>