<svg xmlns="http://www.w3.org/2000/svg" version="1.1" viewBox="0 0 227 169" style="shape-rendering:geometricPrecision;">
  <path d="M150 80c15,0 28,-13 28,-28 0,-15 -13,-27 -28,-27 -15,0 -27,12 -27,27 0,0 0,0 0,0 0,0 0,0 0,0 0,16 12,28 27,28 0,0 0,0 0,0l0 0zm64 50l0 23 -55 0 0 -23c0,-13 -7,-24 -18,-31 20,-2 73,6 73,31zm-137 -41c20,0 37,-17 37,-37 0,-20 -17,-36 -37,-36 -20,0 -36,16 -36,36 0,0 0,0 0,0 0,0 0,0 0,0 0,21 16,37 36,37 0,0 0,0 0,0l0 0zm-64 41l0 23 128 0 0 -23c0,-21 -31,-32 -64,-32 -33,1 -63,12 -64,32z"/>
</svg>