<svg xmlns="http://www.w3.org/2000/svg" viewBox="0 0 579 579">
  <path d="M222 54l0 0c24,0 43,20 43,43l0 385c0,24 -19,43 -43,43l0 0c-23,0 -43,-19 -43,-43l0 -385c0,-23 20,-43 43,-43zm270 60l0 0c24,0 43,20 43,44l0 324c0,24 -19,43 -43,43l0 0c-24,0 -43,-19 -43,-43l0 -324c0,-24 19,-44 43,-44zm-404 196l0 0c23,0 43,19 43,43l0 129c0,24 -20,43 -43,43l0 0c-24,0 -44,-19 -44,-43l0 -129c0,-24 20,-43 44,-43zm269 -138l0 0c24,0 43,19 43,43l0 267c0,24 -19,43 -43,43l0 0c-24,0 -43,-19 -43,-43l0 -267c0,-24 19,-43 43,-43z"/>
</svg>
