<svg xmlns="http://www.w3.org/2000/svg" viewBox="0 0 36946 36946">
  <polygon points="6839,16591 6839,16591 6839,17081 6839,19864 6839,20343 6839,20343 6839,22661 6839,22661 6839,24351 16142,24351 16142,21263 33860,21263 33860,31191 16142,31191 16142,28103 6839,28103 6839,29792 6839,33934 3086,33934 3086,29792 3086,28103 3086,22661 3086,20343 3086,19864 3086,17081 3086,16591 3086,14284 3086,8843 3086,7153 3086,3539 6839,3539 6839,7153 6839,8843 16142,8843 16142,5755 33860,5755 33860,15683 16142,15683 16142,12595 6839,12595 6839,14284 6839,14284 "/>
</svg>