<svg xmlns="http://www.w3.org/2000/svg">
    <symbol id="logo" viewBox="0 0 23272 4156">
        <path d="M7410 1781l1187 0c492,0 890,399 890,890 0,492 -398,891 -890,891l-956 0c-164,0 -297,-133 -297,-297 0,-164 133,-297 297,-297l956 0c164,0 297,-133 297,-297 0,-163 -133,-296 -297,-296l-1187 0c-492,0 -891,-399 -891,-891 0,-492 399,-890 891,-890 235,0 461,93 628,260 55,53 88,128 88,210 0,164 -133,297 -297,297 -82,0 -156,-33 -210,-87 -54,-54 -128,-87 -209,-87 -164,0 -297,133 -297,297 0,164 133,297 297,297zm-4151 297l0 8c4,816 667,1476 1484,1476 820,0 1484,-665 1484,-1484 0,-817 -660,-1480 -1476,-1484l-8 0c-164,0 -297,133 -297,296 0,164 133,297 297,297 492,0 891,399 891,891 0,492 -399,890 -891,890 -492,0 -890,-398 -890,-890 0,-164 -133,-297 -297,-297 -164,0 -297,133 -297,297zm17045 -3c0,-820 664,-1484 1484,-1484 820,0 1484,664 1484,1484l0 1190c0,163 -134,297 -297,297 -163,0 -297,-134 -297,-297l0 -1190c0,-492 -398,-890 -890,-890 -492,0 -891,398 -891,890l0 1190c0,163 -133,297 -296,297 -164,0 -297,-134 -297,-297l0 -1190zm-20304 3c0,-820 664,-1484 1484,-1484 820,0 1484,664 1484,1484 0,817 -660,1480 -1476,1484l-8 0c-164,0 -297,-133 -297,-297 0,-164 133,-297 297,-297l0 0c492,0 891,-398 891,-890 0,-492 -399,-891 -891,-891 -492,0 -890,399 -890,891l0 1781 0 0c0,164 -133,297 -297,297 -164,0 -297,-133 -297,-297l0 -1 0 -1780zm6816 890c164,0 297,133 297,297 0,164 -133,297 -297,297 -164,0 -297,-133 -297,-297 0,-164 133,-297 297,-297zm8461 289c0,168 -134,305 -297,305 -163,0 -297,-137 -297,-305l0 -1171c0,-825 658,-1492 1484,-1492 394,0 771,156 1049,433 54,54 88,129 88,211 0,164 -133,297 -297,297 -82,0 -156,-33 -210,-87 -161,-161 -384,-261 -630,-261 -491,0 -890,399 -890,891 0,0 0,1081 0,1179zm1764 -1171c5,816 667,1476 1485,1476 819,0 1484,-665 1484,-1484 0,-817 -661,-1480 -1477,-1484l-7 0c-164,0 -297,133 -297,296 0,164 133,297 297,297 491,0 890,399 890,891 0,492 -399,890 -890,890 -492,0 -891,-398 -891,-890 0,-164 -133,-297 -297,-297 -169,0 -299,137 -297,305zm-4785 289l0 -1188 -1017 0c-164,0 -297,-133 -297,-297 0,-163 133,-296 297,-296l1017 0 0 -297c0,-164 133,-297 297,-297 164,0 297,133 297,297l0 297 441 0c163,0 296,133 296,296 0,164 -133,297 -296,297l-441 0 0 1188c0,530 642,790 1013,419 186,-185 507,-55 507,210 0,82 -33,156 -87,210 -246,246 -585,351 -931,345 -631,-12 -1096,-573 -1096,-1184zm1817 -1781c164,0 297,133 297,296 0,164 -133,297 -297,297 -164,0 -297,-133 -297,-297 0,-163 133,-296 297,-296zm-4586 593c-164,0 -297,-133 -297,-297 0,-163 133,-296 297,-296 492,0 890,398 890,890l0 891c0,530 643,790 1014,419 185,-185 507,-55 507,210 0,82 -34,156 -87,210 -752,752 -2027,208 -2027,-839l0 -891c0,-164 -133,-297 -297,-297z"/>
    </symbol>
</svg>
